<?xml version="1.0" standalone="no"?>
<!DOCTYPE svg PUBLIC "-//W3C//DTD SVG 20010904//EN"
 "http://www.w3.org/TR/2001/REC-SVG-20010904/DTD/svg10.dtd">
<svg version="1.0" xmlns="http://www.w3.org/2000/svg"
 width="256.000000pt" height="256.000000pt" viewBox="0 0 256.000000 256.000000"
 preserveAspectRatio="xMidYMid meet">
<metadata>
Created by potrace 1.16, written by Peter Selinger 2001-2019
</metadata>
<g transform="translate(0.000000,256.000000) scale(0.100000,-0.100000)"
fill="#000000" stroke="none">
<path d="M1630 2058 c-52 -14 -100 -65 -100 -105 0 -38 -54 -262 -99 -408 -40
-129 -102 -308 -111 -318 -11 -13 -95 160 -178 368 -44 110 -98 240 -121 289
-22 49 -41 95 -41 102 0 28 -48 47 -106 42 -137 -12 -164 -100 -130 -431 23
-227 39 -917 22 -963 -12 -34 38 -84 91 -91 54 -7 130 27 145 66 7 18 7 111
-1 296 -6 149 -11 315 -11 370 l1 100 28 -66 c15 -37 53 -113 84 -170 63 -118
117 -273 110 -313 -7 -36 20 -55 77 -55 49 -1 116 26 141 55 9 10 19 37 22 59
13 108 112 463 125 450 4 -3 10 -160 15 -348 5 -188 9 -373 10 -410 1 -48 6
-70 17 -77 26 -17 94 -11 140 12 77 39 88 91 55 273 -12 71 -14 126 -9 265 4
112 2 224 -6 310 -7 74 -13 236 -15 360 -1 144 -6 235 -14 254 -6 16 -9 37 -5
48 14 44 -49 61 -136 36z"/>
</g>
</svg>
