<?xml version="1.0" standalone="no"?>
<!DOCTYPE svg PUBLIC "-//W3C//DTD SVG 20010904//EN"
 "http://www.w3.org/TR/2001/REC-SVG-20010904/DTD/svg10.dtd">
<svg version="1.0" xmlns="http://www.w3.org/2000/svg"
 width="512.000000pt" height="512.000000pt" viewBox="0 0 512.000000 512.000000"
 preserveAspectRatio="xMidYMid meet">
<metadata>
Created by potrace 1.16, written by Peter Selinger 2001-2019
</metadata>
<g transform="translate(0.000000,512.000000) scale(0.100000,-0.100000)"
fill="#000000" stroke="none">
<path d="M3292 4124 c-102 -27 -150 -54 -193 -108 -38 -48 -41 -54 -36 -101 4
-39 -6 -97 -48 -265 -101 -406 -192 -703 -326 -1073 -45 -122 -56 -145 -66
-131 -45 62 -182 360 -288 629 -154 389 -248 612 -320 756 -30 60 -55 116 -55
124 0 49 -52 92 -132 109 -43 10 -165 -12 -217 -39 -66 -33 -93 -68 -126 -166
-39 -119 -44 -270 -16 -479 33 -236 40 -360 51 -795 5 -220 16 -524 25 -675 8
-151 15 -340 15 -419 0 -126 -3 -150 -21 -188 -27 -55 -16 -93 44 -150 59 -57
79 -65 162 -64 117 1 216 46 252 114 14 29 15 68 9 362 -3 182 -11 411 -16
510 -5 99 -12 297 -15 440 l-6 260 74 -170 c41 -93 103 -219 137 -280 101
-182 147 -285 205 -457 52 -155 54 -167 42 -197 -20 -47 -11 -72 36 -106 38
-27 49 -30 112 -29 92 2 220 50 281 106 47 43 57 69 46 113 -6 21 -1 54 19
117 15 49 46 173 68 276 47 218 154 552 164 512 19 -79 29 -365 24 -713 -5
-390 3 -535 37 -692 20 -92 20 -112 -4 -142 -28 -35 -25 -74 6 -104 22 -20 38
-24 105 -28 110 -5 199 23 266 84 93 83 103 183 47 470 -27 134 -28 150 -24
380 7 450 4 665 -15 855 -15 144 -19 283 -21 620 -2 418 -3 438 -24 515 -15
53 -22 102 -21 146 2 62 1 66 -24 77 -35 16 -147 14 -213 -4z"/>
</g>
</svg>
